<svg xmlns="http://www.w3.org/2000/svg" width="28.211" height="26.202" viewBox="0 0 28.211 26.202">
  <g id="wallet" transform="translate(0 -34.55)">
    <path id="Path_91" data-name="Path 91" d="M26.631,45.945H25.96V41.581a3.119,3.119,0,0,0-2.985-3.231h-.619l.006-1.622a2.1,2.1,0,0,0-2.013-2.179H2.447A2.552,2.552,0,0,0,0,37.161V58.573a2.1,2.1,0,0,0,2.013,2.179H22.981a3.119,3.119,0,0,0,2.985-3.231v-4.37h.671a1.644,1.644,0,0,0,1.574-1.7v-3.8A1.652,1.652,0,0,0,26.631,45.945ZM2.447,36.053h17.9a.651.651,0,0,1,.625.67l-.006,1.628H2.447a1.153,1.153,0,0,1,0-2.3ZM24.572,57.515a1.67,1.67,0,0,1-1.6,1.728H2.008a.653.653,0,0,1-.625-.676V39.59a2.285,2.285,0,0,0,1.065.263H22.975a1.67,1.67,0,0,1,1.6,1.728v4.364H19.833a1.644,1.644,0,0,0-1.574,1.7v3.8a1.644,1.644,0,0,0,1.574,1.7h4.738v4.364Zm2.245-6.067a.191.191,0,0,1-.185.2H19.839a.191.191,0,0,1-.185-.2v-3.8a.2.2,0,0,1,.185-.2h6.792a.194.194,0,0,1,.185.2v3.8Z" transform="translate(0 0)"/>
  </g>
</svg>
