<svg xmlns="http://www.w3.org/2000/svg" width="15.433" height="15.403" viewBox="0 0 15.433 15.403">
  <g id="add-user" transform="translate(0 -0.499)">
    <g id="Group_9" data-name="Group 9" transform="translate(0 0.499)">
      <g id="Group_8" data-name="Group 8">
        <path id="Path_8" data-name="Path 8" d="M7.7.5A4.451,4.451,0,0,0,5.183,8.621,7.714,7.714,0,0,0,0,15.9H1.2A6.506,6.506,0,0,1,7.7,9.4,4.453,4.453,0,0,0,7.7.5Zm0,7.7a3.249,3.249,0,1,1,3.249-3.249A3.253,3.253,0,0,1,7.7,8.2Z" transform="translate(0 -0.499)" fill="#262626"/>
      </g>
    </g>
    <g id="Group_11" data-name="Group 11" transform="translate(9.176 9.645)">
      <g id="Group_10" data-name="Group 10">
        <path id="Path_9" data-name="Path 9" d="M308.136,306.433v-2.527h-1.2v2.527H304.4v1.2h2.527v2.527h1.2v-2.527h2.527v-1.2Z" transform="translate(-304.405 -303.906)" fill="#262626"/>
      </g>
    </g>
  </g>
</svg>
