<svg xmlns="http://www.w3.org/2000/svg" width="29.138" height="25.618" viewBox="0 0 29.138 25.618">
  <g id="licitatii_desfash" transform="translate(-10 -61.569)">
    <path id="Path_165" data-name="Path 165" d="M19.348,63.817l7.433,4.216a1.236,1.236,0,0,0,1.674-.441,1.19,1.19,0,0,0-.449-1.645l-7.433-4.216a1.236,1.236,0,0,0-1.674.441,1.2,1.2,0,0,0,.449,1.645Zm6.821,5.259L18.736,64.86l-4.29,7.3,7.433,4.216ZM12.6,75.293l7.433,4.216a1.237,1.237,0,0,0,1.674-.441,1.2,1.2,0,0,0-.449-1.645L13.83,73.21a1.236,1.236,0,0,0-1.674.441,1.185,1.185,0,0,0,.449,1.642Zm25.615,3.4L24.638,71.685,23.41,73.774l12.97,8.052a1.856,1.856,0,0,0,2.512-.66,1.794,1.794,0,0,0-.672-2.472ZM24.757,84.779a1.215,1.215,0,0,0-1.225-1.2H12.492a1.213,1.213,0,0,0-1.225,1.2v1.2L10,85.957l.042,1.23h15.94l.056-1.154-1.207-.05a10.63,10.63,0,0,1-.074-1.2Z" transform="translate(0 0)" fill="#1d2632"/>
  </g>
</svg>
