<svg xmlns="http://www.w3.org/2000/svg" width="13.367" height="18.083" viewBox="0 0 13.367 18.083">
  <g id="location-point" transform="translate(-33.362)">
    <path id="Path_10" data-name="Path 10" d="M76.1,38.8a3.941,3.941,0,1,0,3.941,3.941A3.946,3.946,0,0,0,76.1,38.8Zm0,6.822a2.881,2.881,0,1,1,2.881-2.881A2.885,2.885,0,0,1,76.1,45.622Z" transform="translate(-36.056 -36.058)" fill="#fff"/>
    <path id="Path_11" data-name="Path 11" d="M40.045,0a6.691,6.691,0,0,0-6.683,6.683c0,2.125,1.782,5.292,2.845,6.99a30.322,30.322,0,0,0,2.115,2.994c1.067,1.306,1.449,1.415,1.723,1.415s.639-.109,1.7-1.416a31.222,31.222,0,0,0,2.116-2.993c1.07-1.7,2.864-4.875,2.864-6.991A6.691,6.691,0,0,0,40.045,0ZM43.13,12.849a21.339,21.339,0,0,1-3.091,4.112,20.132,20.132,0,0,1-3.092-4.105c-1.6-2.616-2.525-4.866-2.525-6.172a5.623,5.623,0,1,1,11.247,0C45.669,7.983,44.743,10.23,43.13,12.849Z" fill="#fff"/>
  </g>
</svg>
