<svg xmlns="http://www.w3.org/2000/svg" width="20.572" height="18" viewBox="0 0 20.572 18">
  <g id="login-square-arrow-button-outline" transform="translate(0 -38.25)">
    <g id="_x36__30_" transform="translate(0 38.25)">
      <g id="Group_154" data-name="Group 154" transform="translate(0 0)">
        <path id="Path_179" data-name="Path 179" d="M11.149,51.263a.643.643,0,0,0,.909.909l4.435-4.436a.742.742,0,0,0,0-.973l-4.435-4.435a.643.643,0,0,0-.909.909l3.37,3.37H.643a.643.643,0,0,0,0,1.286H14.52ZM18,38.25H5.143a2.572,2.572,0,0,0-2.571,2.571v2.571H3.857V40.821a1.286,1.286,0,0,1,1.286-1.286H18a1.286,1.286,0,0,1,1.286,1.286V53.679A1.286,1.286,0,0,1,18,54.964H5.143a1.285,1.285,0,0,1-1.286-1.286V51.107H2.571v2.571A2.572,2.572,0,0,0,5.143,56.25H18a2.572,2.572,0,0,0,2.571-2.571V40.821A2.572,2.572,0,0,0,18,38.25Z" transform="translate(0 -38.25)" fill="#262626"/>
      </g>
    </g>
  </g>
</svg>
