<svg xmlns="http://www.w3.org/2000/svg" width="89.143" height="78" viewBox="0 0 89.143 78">
  <path id="Path_179" data-name="Path 179" d="M48.313,94.638a2.785,2.785,0,1,0,3.939,3.939L71.47,79.356a3.215,3.215,0,0,0,0-4.218L52.252,55.92a2.785,2.785,0,1,0-3.939,3.939L62.918,74.464H2.786a2.786,2.786,0,0,0,0,5.572H62.918ZM78,38.25H22.286A11.143,11.143,0,0,0,11.143,49.393V60.536h5.571V49.393a5.572,5.572,0,0,1,5.571-5.571H78a5.572,5.572,0,0,1,5.571,5.571v55.714A5.572,5.572,0,0,1,78,110.679H22.286a5.57,5.57,0,0,1-5.571-5.571V93.964H11.143v11.143A11.143,11.143,0,0,0,22.286,116.25H78a11.143,11.143,0,0,0,11.143-11.143V49.393A11.143,11.143,0,0,0,78,38.25Z" transform="translate(0 -38.25)"/>
</svg>
