<svg xmlns="http://www.w3.org/2000/svg" width="85.328" height="78.267" viewBox="0 0 85.328 78.267">
  <g id="forgot_pass" transform="translate(0 0)">
    <path id="Path_183" data-name="Path 183" d="M73.864,31.577a39.127,39.127,0,0,0-55.689.351,2.111,2.111,0,1,0,3.02,2.949,34.912,34.912,0,1,1-9.919,24.368v-.439l3.476,3.476a2.114,2.114,0,0,0,1.492.614,2.144,2.144,0,0,0,1.492-.614,2.109,2.109,0,0,0,0-2.985l-7.058-7.075a2.109,2.109,0,0,0-2.985,0L.619,59.3a2.107,2.107,0,0,0,1.492,3.6A2.144,2.144,0,0,0,3.6,62.283L7.08,58.807v.439a39.13,39.13,0,0,0,66.8,27.669,39.142,39.142,0,0,0-.018-55.338Z" transform="translate(0 -20.113)"/>
    <path id="Path_184" data-name="Path 184" d="M176.807,113.413a12.423,12.423,0,0,0-12.412,12.412v5.987h-3.862a2.113,2.113,0,0,0-2.107,2.107v21.015a2.113,2.113,0,0,0,2.107,2.107H193.1a2.113,2.113,0,0,0,2.107-2.107v-21a2.113,2.113,0,0,0-2.107-2.107h-3.862v-5.987A12.453,12.453,0,0,0,176.807,113.413Zm-8.2,12.43a8.2,8.2,0,0,1,16.4,0v5.987h-16.4v-5.987Zm22.384,26.984H162.639v-16.8h28.354Z" transform="translate(-130.611 -97.033)"/>
  </g>
</svg>
