<svg xmlns="http://www.w3.org/2000/svg" width="78.412" height="78.26" viewBox="0 0 78.412 78.26">
  <g id="register_modal" transform="translate(0 -0.499)">
    <g id="Group_9" data-name="Group 9" transform="translate(0 0.499)">
      <g id="Group_8" data-name="Group 8">
        <path id="Path_8" data-name="Path 8" d="M39.13.5a22.615,22.615,0,0,0-12.8,41.264A39.192,39.192,0,0,0,0,78.759H6.114A33.053,33.053,0,0,1,39.13,45.743,22.622,22.622,0,0,0,39.13.5Zm0,39.13A16.508,16.508,0,1,1,55.638,23.121,16.527,16.527,0,0,1,39.13,39.629Z" transform="translate(0 -0.499)"/>
      </g>
    </g>
    <g id="Group_11" data-name="Group 11" transform="translate(46.619 46.966)">
      <g id="Group_10" data-name="Group 10">
        <path id="Path_9" data-name="Path 9" d="M323.359,316.746v-12.84h-6.114v12.84h-12.84v6.114h12.84V335.7h6.114V322.86H336.2v-6.114Z" transform="translate(-304.405 -303.906)"/>
      </g>
    </g>
  </g>
</svg>
